<?xml version="1.0" encoding="utf-8"?>
<!-- Generator: Adobe Illustrator 27.5.0, SVG Export Plug-In . SVG Version: 6.00 Build 0)  -->
<svg version="1.1" xmlns="http://www.w3.org/2000/svg" xmlns:xlink="http://www.w3.org/1999/xlink" x="0px" y="0px"
	 viewBox="90 90 320 320" style="enable-background:new 0 0 500 500;" xml:space="preserve">
<g id="BACKGROUND">
	<rect style="fill:#fef9ec;" width="500" height="500"/>
</g>
<g id="OBJECTS">
	<g>
		<polygon style="fill:#373D4D;" points="500,500.513 500,414.333 412.833,501.5 		"/>
		<polygon style="fill:#373D4D;" points="0,-0.513 0,85.667 87.167,-1.5 		"/>
		<g>
			
				<path style="fill:none;stroke:#373D4D;stroke-width:3.1848;stroke-linecap:round;stroke-linejoin:round;stroke-miterlimit:10;" d="
				M215.707,185.592c6.751-6.612,6.791-15.285,3.191-25.076c-2.512,5.894-5.568,10.516-10.258,11.322c0,0-14.134-5.623-24.468,4.255
				l-2.812,6.459l-8.587,4.483l0.76,5.319c0,0,0.304,6.383,1.748,7.675c0,0,2.812,4.939,5.547,5.395
				c2.736,0.456,11.17-2.128,16.565,4.635"/>
			
				<path style="fill:none;stroke:#373D4D;stroke-width:3.1848;stroke-linecap:round;stroke-linejoin:round;stroke-miterlimit:10;" d="
				M218.899,160.516c0,0,7.675,9.651,6.763,19.301c0,0,9.954,12.234,8.967,28.268c0,0,9.043,12.386,8.131,23.328"/>
			
				<path style="fill:none;stroke:#373D4D;stroke-width:3.1848;stroke-linecap:round;stroke-linejoin:round;stroke-miterlimit:10;" d="
				M189.36,205.523l2.791,5.372l-3.04,17.173l-4.096,8.248c-2.01,4.048-1.58,8.881,1.113,12.511l6.022,8.117l13.641,21.564"/>
			
				<path style="fill:none;stroke:#373D4D;stroke-width:3.1848;stroke-linecap:round;stroke-linejoin:round;stroke-miterlimit:10;" d="
				M198.23,254.589l3.163,6.2c2.915,5.714,4.435,12.038,4.435,18.453v41.153l-1.2,0.693c-4.409,2.546-7.691,6.667-9.185,11.534h0
				c-0.331,1.08,0.476,2.173,1.606,2.173h14.456c4.197,0,7.885-2.781,9.039-6.816l6.561-22.933"/>
			
				<path style="fill:none;stroke:#373D4D;stroke-width:3.1848;stroke-linecap:round;stroke-linejoin:round;stroke-miterlimit:10;" d="
				M313.732,313.252c0,0,3.344,11.854-8.055,14.742c-11.398,2.888-59.727-3.799-65.806-20.821
				c-6.079-17.021,11.436-34.75,4.863-39.97c-5.167-4.103-23.556,27.052-15.046,45.441c8.511,18.389,24.924,25.076,42.249,25.988
				c17.325,0.912,41.642,2.736,50.608-5.167c8.967-7.903,3.039-31.307-1.216-35.107c0,0,1.771-68.382-81.714-81.456"/>
			
				<path style="fill:none;stroke:#373D4D;stroke-width:3.1848;stroke-linecap:round;stroke-linejoin:round;stroke-miterlimit:10;" d="
				M309.629,276.474c0,0-33.739-23.613-55.016,1.72c-21.277,25.332,1.307,42.097,1.307,42.097"/>
			
				<path style="fill:none;stroke:#373D4D;stroke-width:3.1848;stroke-linecap:round;stroke-linejoin:round;stroke-miterlimit:10;" d="
				M239.345,326.236L239.345,326.236c-2.447,1.875-3.881,4.781-3.881,7.863v0.696h17.579"/>
			
				<path style="fill:none;stroke:#373D4D;stroke-width:3.1848;stroke-linecap:round;stroke-linejoin:round;stroke-miterlimit:10;" d="
				M239.667,269.275L239.667,269.275c2.492-6.845,2.551-14.34,0.167-21.224l-2.09-6.035"/>
			
				<path style="fill:none;stroke:#373D4D;stroke-width:3.1848;stroke-linecap:round;stroke-linejoin:round;stroke-miterlimit:10;" d="
				M207.881,210.06l2.645-1.03c7.234-2.817,12.547-9.109,14.111-16.714l0,0"/>
			
				<path style="fill:none;stroke:#373D4D;stroke-width:3.1848;stroke-linecap:round;stroke-linejoin:round;stroke-miterlimit:10;" d="
				M198.177,266.471l2.941,51.949l-1.755,0.36c-4.708,0.966-8.824,3.796-11.412,7.845l-2.849,4.457
				c-1.027,1.607,0.127,3.714,2.034,3.714h9.089"/>
		</g>
	</g>
</g>
</svg>
